<svg width="128" height="128" viewBox="-20 0 159 159" fill="none" xmlns="http://www.w3.org/2000/svg">
  <g>
    <path d="M82.197 143.005L63.2285 153.239C59.6434 155.194 55.3413 155.194 51.7562 153.239L46.2807 148.61C33.8958 138.116 26.7256 122.733 26.7256 106.502V73.1929H102.469V109.109C102.404 123.189 94.6471 136.226 82.197 143.005Z" fill="#FBB03B"/>
    <path d="M81.4147 30.9538H62.2507C62.2507 22.4148 69.2254 15.4401 77.8296 15.4401V3.90259C62.9026 3.90259 50.7132 16.092 50.7132 31.019C32.1358 31.019 17.1436 46.0765 17.1436 64.5887V72.6063H110.943V60.4169C110.878 44.1861 97.7107 30.9538 81.4147 30.9538Z" fill="#FBB03B"/>
    
    <path d="M57.8182 158.649C55.2109 158.649 52.5384 157.997 50.1917 156.693L31.2233 146.459C17.4695 139.028 8.86523 124.688 8.86523 108.979V69.0862H106.771V108.979C106.771 124.623 98.2322 138.963 84.4132 146.459L65.4447 156.693C63.0981 157.997 60.4256 158.649 57.8182 158.649ZM16.8828 77.1038V108.979C16.8828 121.689 23.8575 133.357 35.0039 139.419L53.9724 149.653C56.3842 150.957 59.2523 150.957 61.6641 149.653L80.6326 139.419C91.8442 133.357 98.7536 121.689 98.7536 108.979V77.1038H16.8828Z" fill="#132136"/>
    <path d="M108.205 76.5172H7.03985C3.12882 76.5172 0 73.3232 0 69.4774V63.4805C0 43.3387 16.4263 26.9124 36.5681 26.9124H47.3234C49.1486 13.0934 60.295 1.8818 74.1791 0.0566562C76.1998 -0.204079 78.2857 0.447759 79.7849 1.75143C81.2841 3.12029 82.1967 5.01062 82.1967 7.03132V12.5068C82.1967 15.9615 79.7197 18.8948 76.3302 19.4814C72.2236 20.1333 68.8341 23.0013 67.4 26.8472H78.742C98.8838 26.8472 115.31 43.2735 115.31 63.4153V69.4122C115.245 73.3232 112.116 76.5172 108.205 76.5172ZM8.0176 68.4996H107.292V63.4805C107.292 47.706 94.4513 34.93 78.742 34.93H66.0963C63.8801 34.93 61.8594 33.9522 60.4905 32.1923C59.1217 30.4975 58.6654 28.2812 59.1869 26.1953C61.012 18.8948 66.8134 13.289 74.1791 11.7897V8.13944C64.1408 9.8994 56.2536 18.3081 55.2106 28.542C54.8195 32.1923 51.8211 34.8648 48.1708 34.8648H36.5681C20.7936 34.8648 8.0176 47.6408 8.0176 63.4153V68.4996Z" fill="#132136"/>
    <path d="M84.5433 109.435L77.4382 103.308C75.939 102.004 73.6576 102.069 72.1583 103.373L66.0311 108.979C63.4889 111.325 59.3823 109.5 59.3823 106.045V72.8018H91.0616V106.437C91.0616 109.826 87.1506 111.651 84.5433 109.435Z" fill="#132136"/>
  </g>
</svg>
