<?xml version="1.0" encoding="utf-8"?>
<svg version="1.1" xmlns="http://www.w3.org/2000/svg" xmlns:xlink="http://www.w3.org/1999/xlink" x="0px" y="0px"
	 viewBox="0 0 115 159" style="enable-background:new 0 0 440 159;" xml:space="preserve">
	<path class="st0" d="M57.8,158.6c-2.6,0-5.3-0.7-7.6-2l-19-10.2C17.5,139,8.9,124.7,8.9,109V69.1h97.9V109c0,15.6-8.5,30-22.4,37.5
		l-19,10.2C63.1,158,60.4,158.6,57.8,158.6z M16.9,77.1V109c0,12.7,7,24.4,18.1,30.4l19,10.2c2.4,1.3,5.3,1.3,7.7,0l19-10.2
		c11.2-6.1,18.1-17.7,18.1-30.4V77.1H16.9z"/>
	<path class="st0" d="M108.2,76.5H7c-3.9,0-7-3.2-7-7v-6c0-20.1,16.4-36.6,36.6-36.6h10.8c1.8-13.8,13-25,26.9-26.9
		c2-0.3,4.1,0.4,5.6,1.7C81.3,3.1,82.2,5,82.2,7v5.5c0,3.5-2.5,6.4-5.9,7c-4.1,0.7-7.5,3.5-8.9,7.4h11.3c20.1,0,36.6,16.4,36.6,36.6
		v6C115.2,73.3,112.1,76.5,108.2,76.5z M8,68.5h99.3v-5c0-15.8-12.8-28.6-28.6-28.6H66.1c-2.2,0-4.2-1-5.6-2.7
		c-1.4-1.7-1.8-3.9-1.3-6c1.8-7.3,7.6-12.9,15-14.4V8.1c-10,1.8-17.9,10.2-19,20.4c-0.4,3.7-3.4,6.3-7,6.3H36.6
		C20.8,34.9,8,47.6,8,63.4V68.5z"/>
	<path class="st0" d="M84.5,109.4l-7.1-6.1c-1.5-1.3-3.8-1.2-5.3,0.1L66,109c-2.5,2.3-6.6,0.5-6.6-2.9V72.8h31.7v33.6
		C91.1,109.8,87.2,111.7,84.5,109.4z"/>
</svg>
